<svg width="540" height="540" viewBox="0 0 540 540" fill="none" xmlns="http://www.w3.org/2000/svg">
<path fill-rule="evenodd" clip-rule="evenodd" d="M270 540C419.117 540 540 419.117 540 270C540 120.883 419.117 0 270 0C120.883 0 0 120.883 0 270C0 419.117 120.883 540 270 540ZM101.296 438.704C8.69354 346.102 8.93237 195.726 101.829 102.829C194.726 9.93237 345.102 9.69354 437.704 102.296C530.306 194.898 530.068 345.274 437.171 438.171C344.274 531.068 193.898 531.306 101.296 438.704ZM122.286 417.714C54.7301 350.158 43.6335 247.334 89.1093 167.865L165.314 227.034L111.42 280.929L279.362 280.362L279.929 112.42L226.034 166.314L166.865 90.1093C246.334 44.6336 349.158 55.7301 416.714 123.286C429.751 136.323 440.685 150.673 449.516 165.915L394.547 220.884L338.489 136.678L338.15 338.586L136.242 338.924L220.448 394.983L164.915 450.516C149.673 441.685 135.323 430.751 122.286 417.714ZM195.173 225.163L99.796 151.108C106.568 141.533 114.242 132.397 122.82 123.82C131.397 115.242 140.533 107.568 150.108 100.796L224.163 196.173L259.977 160.359L259.638 260.638L159.359 260.977L195.173 225.163ZM183.406 460.012L251.522 391.896L201.516 358.605L357.907 358.343L358.169 201.952L391.46 251.958L459.012 184.406C493.503 260.853 479.256 354.104 416.18 417.18C353.104 480.256 259.853 494.503 183.406 460.012Z" fill="white"/>
</svg>
